<?xml version="1.0" encoding="UTF-8" standalone="no"?>
<!-- Created with Inkscape (http://www.inkscape.org/) -->
<svg
   xmlns:dc="http://purl.org/dc/elements/1.1/"
   xmlns:cc="http://creativecommons.org/ns#"
   xmlns:rdf="http://www.w3.org/1999/02/22-rdf-syntax-ns#"
   xmlns:svg="http://www.w3.org/2000/svg"
   xmlns="http://www.w3.org/2000/svg"
   xmlns:sodipodi="http://sodipodi.sourceforge.net/DTD/sodipodi-0.dtd"
   xmlns:inkscape="http://www.inkscape.org/namespaces/inkscape"
   width="404.14877"
   height="123.27029"
   id="svg2"
   sodipodi:version="0.32"
   inkscape:version="0.46"
   version="1.0"
   sodipodi:docname="Faraday signature.svg"
   inkscape:output_extension="org.inkscape.output.svg.inkscape">
  <defs
     id="defs4">
    <inkscape:perspective
       sodipodi:type="inkscape:persp3d"
       inkscape:vp_x="0 : 526.18109 : 1"
       inkscape:vp_y="0 : 1000 : 0"
       inkscape:vp_z="744.09448 : 526.18109 : 1"
       inkscape:persp3d-origin="372.04724 : 350.78739 : 1"
       id="perspective10" />
    <inkscape:perspective
       id="perspective2390"
       inkscape:persp3d-origin="372.04724 : 350.78739 : 1"
       inkscape:vp_z="744.09448 : 526.18109 : 1"
       inkscape:vp_y="0 : 1000 : 0"
       inkscape:vp_x="0 : 526.18109 : 1"
       sodipodi:type="inkscape:persp3d" />
  </defs>
  <sodipodi:namedview
     id="base"
     pagecolor="#ffffff"
     bordercolor="#666666"
     borderopacity="1.0"
     gridtolerance="10000"
     guidetolerance="10"
     objecttolerance="10"
     inkscape:pageopacity="0.0"
     inkscape:pageshadow="2"
     inkscape:zoom="0.35"
     inkscape:cx="462.0397"
     inkscape:cy="383.47608"
     inkscape:document-units="px"
     inkscape:current-layer="layer1"
     showgrid="false"
     inkscape:window-width="640"
     inkscape:window-height="672"
     inkscape:window-x="198"
     inkscape:window-y="207" />
  <metadata
     id="metadata7">
    <rdf:RDF>
      <cc:Work
         rdf:about="">
        <dc:format>image/svg+xml</dc:format>
        <dc:type
           rdf:resource="http://purl.org/dc/dcmitype/StillImage" />
      </cc:Work>
    </rdf:RDF>
  </metadata>
  <g
     inkscape:label="Layer 1"
     inkscape:groupmode="layer"
     id="layer1"
     transform="translate(46.377209,-125.82838)">
    <path
       style="fill:#000000"
       d="M 224.35905,247.78556 C 224.35905,247.06335 226.62088,245.32493 229.38534,243.9224 C 234.74346,241.20399 256.76896,233.95215 264.56934,232.33815 C 271.58942,230.88561 312.17026,206.49377 314.8911,202.09137 C 316.54627,199.41324 313.21106,197.89806 303.23098,196.79423 C 295.82928,195.97557 292.88786,196.13417 291.3762,197.43346 C 285.60361,202.39503 274.20477,205.74596 273.07902,202.8123 C 272.56559,201.47431 270.65828,201.20393 265.7957,201.77983 C 258.10378,202.69082 257.39503,201.26975 263.1332,196.4414 C 267.64128,192.6481 276.25099,190.54634 278.41542,192.71077 C 279.43364,193.72898 278.50885,194.14605 275.22507,194.14961 C 269.74091,194.15555 259.70938,199.69892 263.64381,200.54934 C 264.97774,200.83767 268.45808,200.11771 271.37791,198.94943 C 278.26443,196.19399 278.89075,196.27002 275.96225,199.50597 C 273.60628,202.10929 273.62117,202.18665 276.47809,202.18665 C 279.73717,202.18665 289.36951,197.64747 290.70875,195.48054 C 291.70202,193.87339 312.13927,195.15329 315.83746,197.05425 C 317.12754,197.71738 318.18306,199.0708 318.18306,200.06184 C 318.18306,203.29836 303.94341,213.58932 282.99905,225.4892 C 279.49741,227.47873 276.63242,229.25848 276.63242,229.44422 C 276.63242,229.62995 282.85887,228.73353 290.46897,227.45216 C 304.83899,225.03257 346.65394,220.86549 354.54473,221.06666 C 363.03169,221.28304 353.31467,223.18937 342.30923,223.46708 C 329.36096,223.79382 300.05886,227.13613 282.70258,230.26605 C 273.55783,231.91515 266.07217,234.24252 259.80584,237.38489 C 249.76895,242.41806 230.99483,249.09866 226.88724,249.09866 C 225.49673,249.09866 224.35905,248.50776 224.35905,247.78556 z M 241.48839,243.16749 C 249.77635,240.34858 259.63999,235.75164 253.84659,237.40797 C 246.64685,239.46638 229.72042,245.39466 229.72042,245.85788 C 229.72042,246.92002 231.96265,246.4074 241.48839,243.16749 z M -17.796172,231.00446 C -36.687598,226.89726 -46.405032,217.00353 -46.377149,201.90497 C -46.357359,191.18875 -41.697961,182.65591 -28.696728,169.5265 C -16.309533,157.01717 -5.6709665,149.63687 5.5276706,145.78397 C 17.573886,141.63947 22.038532,142.37984 24.53091,148.9353 C 26.407769,153.87182 24.773866,157.77154 15.871104,169.60409 L 8.6193368,179.24233 L 18.448686,174.57439 C 35.827574,166.32119 40.873109,168.79737 33.159625,181.79403 C 31.096947,185.26949 29.393514,188.51079 29.374219,188.99692 C 29.354924,189.48304 27.529676,191.27998 25.318109,192.99012 C 23.106542,194.70026 19.487617,197.76787 17.27605,199.80703 C 13.242216,203.5264 10.30792,204.78644 11.979757,202.08136 C 12.471156,201.28626 15.526142,198.19033 18.768617,195.20152 C 25.470473,189.02397 35.729218,174.36359 34.613465,172.55827 C 32.079231,168.45779 13.93942,176.89483 -1.819949,189.50389 C -7.7741613,194.26784 -13.361243,198.16562 -14.235688,198.16562 C -15.110134,198.16562 -9.6464516,192.29029 -2.0941736,185.10932 C 24.200235,160.10769 30.443145,145.89225 15.128541,145.89225 C 3.6777425,145.89225 -14.500878,156.81761 -29.149869,172.50361 C -39.412485,183.49272 -42.914364,189.28581 -44.289253,197.5484 C -46.403857,210.25641 -40.262861,220.62296 -27.113777,226.54215 C -21.05129,229.27124 -18.149434,229.63228 -2.1589233,229.64702 C 13.053944,229.66103 17.429956,229.17794 25.318109,226.61365 C 40.361877,221.72322 58.007131,212.31032 69.552991,203.01646 C 82.33129,192.73055 92.52378,182.49342 91.252398,181.22204 C 89.740276,179.70992 80.914289,180.53505 73.986046,182.83624 C 67.086691,185.12784 56.270992,192.95945 49.752332,200.38379 C 47.587202,202.84975 45.224794,204.86734 44.502539,204.86734 C 42.379303,204.86734 43.705027,202.78341 50.195439,195.91856 C 57.366986,188.33328 63.517883,179.55614 63.517883,176.90786 C 63.517883,172.76856 46.072188,178.5795 34.958427,186.42066 C 32.88871,187.88091 30.883296,188.76365 30.501951,188.3823 C 29.450372,187.33072 44.567507,178.82401 53.28205,175.56347 C 59.105621,173.3846 61.617941,173.02263 63.590433,174.07828 C 66.864,175.83024 66.863843,177.62315 63.58967,182.99288 L 60.990791,187.25511 L 67.280626,184.15784 C 76.889872,179.426 83.450059,177.68166 88.533916,178.50666 C 92.993608,179.23037 93.770851,178.63616 110.83957,161.45357 C 120.56629,151.66195 131.23872,141.39648 134.55607,138.64141 C 140.32611,133.84937 140.41327,133.67354 136.56658,134.58601 C 134.35502,135.11061 128.70402,136.96439 124.00883,138.70552 C 119.31363,140.44665 114.48839,141.87196 113.28608,141.87286 C 112.08377,141.87376 109.34396,143.38474 107.19763,145.23061 C 105.05128,147.07647 103.08223,148.37376 102.82194,148.11348 C 102.21434,147.50588 109.08464,135.1695 110.03065,135.1695 C 110.42219,135.1695 110.42709,136.37581 110.04153,137.85019 C 109.10285,141.43971 110.64258,141.29915 124.72354,136.50985 C 131.22573,134.29828 137.45515,132.48629 138.56667,132.48321 C 139.67819,132.48012 143.55482,130.97224 147.1814,129.13235 C 153.85391,125.74716 157.3419,124.94822 157.3419,126.80503 C 157.3419,128.34415 153.0665,130.69696 148.41202,131.71926 C 143.45145,132.80878 122.32246,151.20138 107.41412,167.40757 C 101.70091,173.61814 97.026463,179.0835 97.026463,179.5528 C 97.026463,181.58901 105.47364,181.94086 109.11771,180.05643 C 115.43502,176.78962 115.22994,177.76 108.52027,182.88321 C 105.04639,185.53572 101.81056,187.31239 101.32954,186.83137 C 100.84852,186.35035 101.32532,185.41887 102.3891,184.76142 C 104.06715,183.72432 104.062,183.48481 102.35026,182.95237 C 101.26515,182.61484 99.409429,182.0318 98.226446,181.65672 C 96.80568,181.20624 92.531406,184.56352 85.63447,191.54727 C 55.065292,222.50122 14.416966,238.00793 -17.796172,231.00446 z M 90.324744,207.72879 C 90.324744,205.08487 96.036455,199.59824 100.2294,198.21444 C 103.57713,197.10959 105.61109,197.12997 108.16573,198.29394 C 111.42455,199.77875 111.49404,200.02181 109.5208,203.03335 C 108.37686,204.77923 107.96263,206.27159 108.60031,206.34971 C 113.52957,206.95354 119.49997,205.02911 130.25021,199.37136 C 137.11314,195.75945 143.83145,192.80426 145.17977,192.80426 C 148.7836,192.80426 150.88721,196.04452 149.88242,200.04793 C 149.04212,203.39598 150.92159,204.98442 152.56914,202.31862 C 152.9799,201.654 156.67538,198.88037 160.78135,196.15499 C 167.0194,192.01441 168.99531,191.34017 172.79987,192.05391 C 175.3041,192.52371 177.67662,193.43169 178.07212,194.07165 C 178.46765,194.71161 176.6903,194.59041 174.12248,193.80232 C 169.68866,192.44155 168.87981,192.75136 158.04959,199.95873 C 151.77731,204.13285 146.31674,207.54803 145.91498,207.54803 C 145.51321,207.54803 145.80888,206.38137 146.572,204.95546 C 148.60334,201.15985 148.26466,195.51791 145.95221,194.63054 C 144.8482,194.20689 140.77691,195.55835 136.9049,197.63377 C 121.34887,205.9719 117.14158,207.80177 111.91436,208.50289 C 107.61378,209.07972 106.27621,208.76193 105.60124,207.00297 C 104.82312,204.97523 104.4575,204.95939 101.60295,206.82976 C 98.247983,209.02802 90.324744,209.65961 90.324744,207.72879 z M 101.88739,204.97747 C 108.32866,202.05247 109.94396,200.12064 106.919,198.95985 C 104.49905,198.03123 94.169411,203.28488 93.327288,205.8726 C 92.565302,208.21401 95.416643,207.91585 101.88739,204.97747 z M 184.14876,207.60227 C 184.14876,205.46942 191.28911,199.47861 194.8715,198.60581 C 196.71447,198.15679 199.91118,196.93826 201.97529,195.89794 C 207.92155,192.90104 210.95562,194.66265 210.95562,201.11201 L 210.95562,206.55843 L 215.9819,205.75088 C 219.43107,205.19671 220.37734,205.34552 218.99768,206.22515 C 217.8919,206.93015 215.0384,207.51621 212.65658,207.5275 C 209.14799,207.54413 208.16651,206.91257 207.48575,204.20016 C 207.0236,202.35884 206.97823,199.98519 207.38492,198.92539 C 208.55266,195.88227 205.27192,195.62361 201.24728,198.44149 C 199.22504,199.85738 196.87002,200.58291 196.0139,200.0538 C 195.09384,199.48518 194.81751,199.6746 195.33817,200.51704 C 195.82265,201.30094 194.36168,203.50517 192.09158,205.41534 C 187.91954,208.92587 184.14876,209.96409 184.14876,207.60227 z M 194.22668,201.09505 C 193.31054,200.17891 186.82944,204.72058 186.82944,206.27871 C 186.82944,207.02097 188.6315,206.29597 190.83399,204.66759 C 193.03649,203.03921 194.5632,201.43157 194.22668,201.09505 z M 224.35905,204.83782 C 224.35905,203.28417 236.19663,195.44308 238.35998,195.56376 C 239.13713,195.60711 238.64596,196.36106 237.26848,197.23919 C 235.89099,198.11732 233.47837,199.92537 231.90711,201.25708 L 229.05025,203.67835 L 232.40111,202.06397 C 246.83097,195.1119 261.72739,180.53963 269.27,165.99739 C 270.60824,163.41723 271.96034,162.0678 272.27466,162.99866 C 273.31457,166.07838 265.55467,177.23861 255.27054,187.45385 C 242.74739,199.89311 224.35905,210.23433 224.35905,204.83782 z M 113.46409,183.80039 C 115.5015,183.49231 118.51727,183.50054 120.16581,183.81869 C 121.81435,184.13683 120.14738,184.3889 116.46143,184.37884 C 112.77549,184.36878 111.42669,184.10847 113.46409,183.80039 z"
       id="path2400" />
  </g>
</svg>
